<svg xmlns="http://www.w3.org/2000/svg" xmlns:xlink="http://www.w3.org/1999/xlink" version="1.1" x="0px" y="0px" viewBox="0 0 95 118.75" enable-background="new 0 0 95 95" xml:space="preserve"><rect x="34.086" y="25.086" width="2.324" height="20.545"/><rect x="38.994" y="25.086" width="2.324" height="20.545"/><path d="M48.154,7.447c-21.561,0-39.1,17.54-39.1,39.099c0,16.042,9.715,29.851,23.565,35.873l-0.138,2.967  c0,2.284,3.385,3.682,5.229,3.682s5.23-1.397,5.23-3.736l-0.002-0.044c1.707,0.229,3.445,0.358,5.215,0.358  c3.658,0,7.199-0.517,10.561-1.461v1.214c0,2.022,1.645,3.669,3.668,3.669c2.021,0,3.668-1.646,3.668-3.669v-4.107  c12.58-6.507,21.203-19.634,21.203-34.745C87.254,24.987,69.713,7.447,48.154,7.447z M58.715,81.767  c-3.346,1.006-6.891,1.553-10.561,1.553c-1.809,0-3.586-0.137-5.326-0.39l-0.239-5.115c1.81,0.319,3.667,0.495,5.565,0.495  c3.7,0,7.252-0.639,10.561-1.799V81.767z M64.889,23.957c-12.066,0-13.512,35.152-13.637,39.161l-0.037,1.198h4.904v-2.324h-2.5  c0.563-13.51,3.693-33.359,10.107-35.519v58.925c0,0.741-0.604,1.344-1.344,1.344c-0.742,0-1.344-0.603-1.344-1.344V62.009h-2.324  v12.376c-3.287,1.241-6.845,1.925-10.561,1.925c-1.936,0-3.826-0.191-5.661-0.543l-1.062-22.678c3.699-1.55,6.215-5.339,6.215-9.518  V25.086h-2.324v18.485c0,3.485-2.234,6.615-5.438,7.609l-0.857,0.267l1.592,33.929c-0.086,0.439-1.746,1.365-2.908,1.365  c-1.133,0-2.822-0.937-2.906-1.302l1.592-33.991l-0.857-0.268c-3.203-0.994-5.438-4.123-5.438-7.609V25.086h-2.326v18.485  c0,4.18,2.516,7.968,6.217,9.518L33.064,72.9l0.031-0.66c-8.924-5.203-14.938-14.872-14.938-25.926  c0-16.54,13.456-29.996,29.996-29.996S78.15,29.774,78.15,46.314c0,9.838-4.762,18.584-12.1,24.057V23.957H64.889z M66.051,78.656  v-5.832c8.501-5.757,14.1-15.492,14.1-26.51c0-17.643-14.354-31.996-31.996-31.996S16.158,28.671,16.158,46.314  c0,12.159,6.818,22.754,16.833,28.167l-0.255,5.439C20.141,74.078,11.379,61.32,11.379,46.545c0-20.277,16.498-36.774,36.775-36.774  S84.93,26.268,84.93,46.545C84.93,60.329,77.303,72.359,66.051,78.656z"/></svg>