<svg xmlns="http://www.w3.org/2000/svg" xmlns:xlink="http://www.w3.org/1999/xlink" version="1.1" x="0px" y="0px" viewBox="0 0 100 125" enable-background="new 0 0 100 100" xml:space="preserve"><g display="none"><rect x="-626.379" y="-794.376" display="inline" fill="#000000" width="1249.438" height="810.71"/></g><g><g><g><path d="M91.227,42.989h-2.333v-5.978c0-1.232-1.001-2.233-2.233-2.233h-5.839v-1.892c0-1.414-1.15-2.564-2.564-2.564h-8.854     c-1.414,0-2.564,1.15-2.564,2.564v9.73H33.158v-9.73c0-1.414-1.15-2.564-2.564-2.564H21.74c-1.414,0-2.564,1.15-2.564,2.564     v1.892h-5.839c-1.231,0-2.233,1.001-2.233,2.233v5.978H8.773C6.692,42.989,5,44.681,5,46.761v5.894     c0,2.08,1.692,3.772,3.773,3.772h2.333v6.564c0,1.231,1.001,2.232,2.233,2.232h5.839v1.893c0,1.414,1.15,2.563,2.564,2.563h8.854     c1.414,0,2.564-1.149,2.564-2.563v-9.73h33.684v9.73c0,1.414,1.15,2.563,2.564,2.563h8.854c1.414,0,2.564-1.149,2.564-2.563     v-1.893h5.839c1.231,0,2.233-1.001,2.233-2.232v-6.564h2.333c2.081,0,3.773-1.692,3.773-3.772v-5.894     C95,44.681,93.308,42.989,91.227,42.989z M11.105,53.74H8.773c-0.599,0-1.086-0.487-1.086-1.085v-5.894     c0-0.599,0.487-1.086,1.086-1.086h2.333V53.74z M13.792,62.536V37.464h5.385v5.151v14.77v5.15H13.792z M30.471,66.991h-8.608     V62.99v-8.292v-9.396v-8.292v-4.002h8.608V66.991z M66.842,54.699H33.158v-9.396h33.684V54.699z M78.137,66.991h-8.608V33.009     h8.608v4.002v25.98V66.991z M86.208,62.536h-5.385V37.464h5.385V62.536z M92.313,52.655c0,0.598-0.487,1.085-1.086,1.085h-2.333     v-8.064h2.333c0.599,0,1.086,0.487,1.086,1.086V52.655z"/></g></g></g></svg>